<svg version="1.1" xmlns="http://www.w3.org/2000/svg" xmlns:xlink="http://www.w3.org/1999/xlink" width="162.52000214048024" height="102.04744320448759" viewBox="0 0 162.52000214048024 102.04744320448759"><defs/><g><g><text fill="none" stroke="rgb(0,255,0)" font-family="sans-serif" font-size="37.7953493349954px" font-style="normal" font-weight="normal" text-decoration="normal" x="7.559069866999081" y="7.559069866999081" text-anchor="start" dominant-baseline="text-before-edge" transform="matrix(1 0 0 1 0 0)" stroke-opacity="1" stroke-linecap="round" stroke-miterlimit="10" stroke-width="0.1" stroke-dasharray="">boat</text></g><g><text fill="none" stroke="rgb(0,255,0)" font-family="sans-serif" font-size="37.7953493349954px" font-style="normal" font-weight="normal" text-decoration="normal" x="7.559069866999081" y="54.80325653574333" text-anchor="start" dominant-baseline="text-before-edge" transform="matrix(1 0 0 1 0 0)" stroke-opacity="1" stroke-linecap="round" stroke-miterlimit="10" stroke-width="0.1" stroke-dasharray="">box 2</text></g><path fill="none" stroke="rgb(0,255,255)" paint-order="fill stroke markers" d=" M 113.38604800498622 71.81116373649127 C 113.38604800498622 61.3742662109505 121.84682514694316 52.91348906899357 132.28372267248392 52.91348906899357 C 142.72062019802468 52.91348906899357 151.18139733998163 61.3742662109505 151.18139733998163 71.81116373649127 C 151.18139733998163 82.24806126203202 142.72062019802468 90.70883840398898 132.28372267248392 90.70883840398898 C 121.84682514694316 90.70883840398898 113.38604800498622 82.24806126203202 113.38604800498622 71.81116373649127" stroke-opacity="1" stroke-linecap="round" stroke-miterlimit="10" stroke-width="0.1" stroke-dasharray=""/><path fill="none" stroke="none"/><path fill="none" stroke="rgb(0,255,255)" paint-order="fill stroke markers" d=" M 15.118139733998161 0 L 147.40186240648208 -1.7763568394002505e-15 L 147.40186240648208 -1.7763568394002505e-15 A 15.118139733998161 15.118139733998161 0 0 1 162.52000214048024 15.11813973399816 L 162.52000214048024 86.92930347048943 L 162.52000214048024 86.92930347048943 A 15.118139733998161 15.118139733998161 0 0 1 147.40186240648208 102.04744320448759 L 15.11813973399816 102.04744320448759 L 15.118139733998161 102.04744320448759 A 15.118139733998161 15.118139733998161 0 0 1 -1.7763568394002505e-15 86.92930347048943 L -1.7763568394002505e-15 15.11813973399816 L -1.7763568394002505e-15 15.118139733998158 A 15.118139733998161 15.118139733998161 0 0 1 15.118139733998161 -1.7763568394002505e-15 Z" stroke-opacity="1" stroke-linecap="round" stroke-miterlimit="10" stroke-width="0.1" stroke-dasharray=""/></g></svg>