<svg version="1.1" xmlns="http://www.w3.org/2000/svg" xmlns:xlink="http://www.w3.org/1999/xlink" width="654.4999999999999" height="654.4999999999999" viewBox="0 0 654.4999999999999 654.4999999999999"><defs/><g><path fill="none" stroke="rgb(0,0,0)" paint-order="fill stroke markers" d=" M 284.54999999999995 113.74999999999999 L 284.54999999999995 113.74999999999999" stroke-opacity="1" stroke-linecap="round" stroke-miterlimit="10" stroke-width="0.08" stroke-dasharray=""/><path fill="none" stroke="rgb(0,0,0)" paint-order="fill stroke markers" d=" M 348.59999999999997 113.74999999999999 L 348.59999999999997 113.74999999999999" stroke-opacity="1" stroke-linecap="round" stroke-miterlimit="10" stroke-width="0.08" stroke-dasharray=""/><path fill="none" stroke="rgb(0,0,0)" paint-order="fill stroke markers" d=" M 284.54999999999995 113.74999999999999 L 348.59999999999997 113.74999999999999" stroke-opacity="1" stroke-linecap="round" stroke-miterlimit="10" stroke-width="0.08" stroke-dasharray=""/><path fill="none" stroke="rgb(0,0,0)" paint-order="fill stroke markers" d=" M 284.54999999999995 177.79999999999998 L 348.59999999999997 177.79999999999998" stroke-opacity="1" stroke-linecap="round" stroke-miterlimit="10" stroke-width="0.08" stroke-dasharray=""/><path fill="none" stroke="rgb(0,0,0)" paint-order="fill stroke markers" d=" M 71.05 49.699999999999996 C 28.349999999999998 71.05 28.349999999999998 220.49999999999997 71.05 241.84999999999997" stroke-opacity="1" stroke-linecap="round" stroke-miterlimit="10" stroke-width="0.08" stroke-dasharray=""/><path fill="none" stroke="rgb(0,0,0)" paint-order="fill stroke markers" d=" M 71.05 241.84999999999997 C 135.1 241.84999999999997 220.49999999999997 220.49999999999997 284.54999999999995 177.79999999999998" stroke-opacity="1" stroke-linecap="round" stroke-miterlimit="10" stroke-width="0.08" stroke-dasharray=""/><path fill="none" stroke="rgb(0,0,0)" paint-order="fill stroke markers" d=" M 71.05 49.699999999999996 C 135.1 49.699999999999996 263.2 92.39999999999999 284.54999999999995 113.74999999999999" stroke-opacity="1" stroke-linecap="round" stroke-miterlimit="10" stroke-width="0.08" stroke-dasharray=""/><path fill="none" stroke="rgb(0,0,0)" paint-order="fill stroke markers" d=" M 348.59999999999997 113.74999999999999 C 391.29999999999995 92.39999999999999 498.04999999999995 49.699999999999996 562.0999999999999 49.699999999999996" stroke-opacity="1" stroke-linecap="round" stroke-miterlimit="10" stroke-width="0.08" stroke-dasharray=""/><path fill="none" stroke="rgb(0,0,0)" paint-order="fill stroke markers" d=" M 348.59999999999997 177.79999999999998 C 412.65 199.14999999999998 476.69999999999993 241.84999999999997 562.0999999999999 241.84999999999997" stroke-opacity="1" stroke-linecap="round" stroke-miterlimit="10" stroke-width="0.08" stroke-dasharray=""/><path fill="none" stroke="rgb(0,0,0)" paint-order="fill stroke markers" d=" M 562.0999999999999 49.699999999999996 C 604.8 71.05 604.8 220.49999999999997 562.0999999999999 241.84999999999997" stroke-opacity="1" stroke-linecap="round" stroke-miterlimit="10" stroke-width="0.08" stroke-dasharray=""/><path fill="none" stroke="rgb(0,0,0)" paint-order="fill stroke markers" d=" M 81.725 92.39999999999999 C 81.725 86.504360295885 86.504360295885 81.725 92.39999999999999 81.725 C 98.29563970411499 81.725 103.07499999999999 86.504360295885 103.07499999999999 92.39999999999999 C 103.07499999999999 98.29563970411499 98.29563970411499 103.07499999999999 92.39999999999999 103.07499999999999 C 86.504360295885 103.07499999999999 81.725 98.29563970411499 81.725 92.39999999999999" stroke-opacity="1" stroke-linecap="round" stroke-miterlimit="10" stroke-width="0.08" stroke-dasharray=""/><path fill="none" stroke="rgb(0,0,0)" paint-order="fill stroke markers" d=" M 81.725 199.14999999999998 C 81.725 193.25436029588496 86.504360295885 188.47499999999997 92.39999999999999 188.47499999999997 C 98.29563970411499 188.47499999999997 103.07499999999999 193.25436029588496 103.07499999999999 199.14999999999998 C 103.07499999999999 205.045639704115 98.29563970411499 209.82499999999996 92.39999999999999 209.82499999999996 C 86.504360295885 209.82499999999996 81.725 205.045639704115 81.725 199.14999999999998" stroke-opacity="1" stroke-linecap="round" stroke-miterlimit="10" stroke-width="0.08" stroke-dasharray=""/><path fill="none" stroke="rgb(0,0,0)" paint-order="fill stroke markers" d=" M 530.075 92.39999999999999 C 530.075 86.504360295885 534.854360295885 81.725 540.75 81.725 C 546.645639704115 81.725 551.4250000000001 86.504360295885 551.4250000000001 92.39999999999999 C 551.4250000000001 98.29563970411499 546.645639704115 103.07499999999999 540.75 103.07499999999999 C 534.854360295885 103.07499999999999 530.075 98.29563970411499 530.075 92.39999999999999" stroke-opacity="1" stroke-linecap="round" stroke-miterlimit="10" stroke-width="0.08" stroke-dasharray=""/><path fill="none" stroke="rgb(0,0,0)" paint-order="fill stroke markers" d=" M 530.075 199.14999999999998 C 530.075 193.25436029588496 534.854360295885 188.47499999999997 540.75 188.47499999999997 C 546.645639704115 188.47499999999997 551.4250000000001 193.25436029588496 551.4250000000001 199.14999999999998 C 551.4250000000001 205.045639704115 546.645639704115 209.82499999999996 540.75 209.82499999999996 C 534.854360295885 209.82499999999996 530.075 205.045639704115 530.075 199.14999999999998" stroke-opacity="1" stroke-linecap="round" stroke-miterlimit="10" stroke-width="0.08" stroke-dasharray=""/></g></svg>