<svg version="1.1" xmlns="http://www.w3.org/2000/svg" xmlns:xlink="http://www.w3.org/1999/xlink" width="312.9" height="654.4999999999999" viewBox="0 0 312.9 654.4999999999999"><defs/><g><path fill="none" stroke="rgb(0,0,0)" paint-order="fill stroke markers" d=" M 7 7 L 7 647.4999999999999" stroke-opacity="1" stroke-linecap="round" stroke-miterlimit="10" stroke-width="0.08" stroke-dasharray=""/><path fill="none" stroke="rgb(0,0,0)" paint-order="fill stroke markers" d=" M 7 647.4999999999999 L 305.9 647.4999999999999" stroke-opacity="1" stroke-linecap="round" stroke-miterlimit="10" stroke-width="0.08" stroke-dasharray=""/><path fill="none" stroke="rgb(0,0,0)" paint-order="fill stroke markers" d=" M 305.9 647.4999999999999 L 305.9 135.1" stroke-opacity="1" stroke-linecap="round" stroke-miterlimit="10" stroke-width="0.08" stroke-dasharray=""/><path fill="none" stroke="rgb(0,0,0)" paint-order="fill stroke markers" d=" M 305.9 135.1 L 7 7" stroke-opacity="1" stroke-linecap="round" stroke-miterlimit="10" stroke-width="0.08" stroke-dasharray=""/><path fill="none" stroke="rgb(0,0,0)" paint-order="fill stroke markers" d=" M 263.2 626.15 L 49.699999999999996 626.15" stroke-opacity="1" stroke-linecap="round" stroke-miterlimit="10" stroke-width="0.08" stroke-dasharray=""/><path fill="none" stroke="rgb(0,0,0)" paint-order="fill stroke markers" d=" M 49.699999999999996 626.15 L 49.699999999999996 604.8" stroke-opacity="1" stroke-linecap="round" stroke-miterlimit="10" stroke-width="0.08" stroke-dasharray=""/><path fill="none" stroke="rgb(0,0,0)" paint-order="fill stroke markers" d=" M 49.699999999999996 604.8 L 263.2 604.8" stroke-opacity="1" stroke-linecap="round" stroke-miterlimit="10" stroke-width="0.08" stroke-dasharray=""/><path fill="none" stroke="rgb(0,0,0)" paint-order="fill stroke markers" d=" M 263.2 604.8 L 263.2 626.15" stroke-opacity="1" stroke-linecap="round" stroke-miterlimit="10" stroke-width="0.08" stroke-dasharray=""/><path fill="none" stroke="rgb(0,0,0)" paint-order="fill stroke markers" d=" M 257.8625 135.1 C 257.8625 132.1521801479425 260.2521801479425 129.7625 263.2 129.7625 C 266.14781985205747 129.7625 268.5375 132.1521801479425 268.5375 135.1 C 268.5375 138.0478198520575 266.14781985205747 140.4375 263.2 140.4375 C 260.2521801479425 140.4375 257.8625 138.0478198520575 257.8625 135.1" stroke-opacity="1" stroke-linecap="round" stroke-miterlimit="10" stroke-width="0.08" stroke-dasharray=""/><path fill="none" stroke="rgb(0,0,0)" paint-order="fill stroke markers" d=" M 44.3625 49.699999999999996 C 44.3625 46.7521801479425 46.7521801479425 44.3625 49.699999999999996 44.3625 C 52.647819852057495 44.3625 55.037499999999994 46.7521801479425 55.037499999999994 49.699999999999996 C 55.037499999999994 52.647819852057495 52.647819852057495 55.037499999999994 49.699999999999996 55.037499999999994 C 46.7521801479425 55.037499999999994 44.3625 52.647819852057495 44.3625 49.699999999999996" stroke-opacity="1" stroke-linecap="round" stroke-miterlimit="10" stroke-width="0.08" stroke-dasharray=""/><path fill="none" stroke="rgb(0,0,0)" paint-order="fill stroke markers" d=" M 279.2125 562.0999999999999 C 279.2125 559.1521801479424 281.6021801479425 556.7624999999999 284.54999999999995 556.7624999999999 C 287.49781985205743 556.7624999999999 289.8875 559.1521801479424 289.8875 562.0999999999999 C 289.8875 565.0478198520574 287.49781985205743 567.4374999999999 284.54999999999995 567.4374999999999 C 281.6021801479425 567.4374999999999 279.2125 565.0478198520574 279.2125 562.0999999999999" stroke-opacity="1" stroke-linecap="round" stroke-miterlimit="10" stroke-width="0.08" stroke-dasharray=""/><path fill="none" stroke="rgb(0,0,0)" paint-order="fill stroke markers" d=" M 279.2125 220.49999999999997 C 279.2125 217.55218014794247 281.6021801479425 215.16249999999997 284.54999999999995 215.16249999999997 C 287.49781985205743 215.16249999999997 289.8875 217.55218014794247 289.8875 220.49999999999997 C 289.8875 223.44781985205748 287.49781985205743 225.83749999999998 284.54999999999995 225.83749999999998 C 281.6021801479425 225.83749999999998 279.2125 223.44781985205748 279.2125 220.49999999999997" stroke-opacity="1" stroke-linecap="round" stroke-miterlimit="10" stroke-width="0.08" stroke-dasharray=""/><path fill="none" stroke="rgb(0,0,0)" paint-order="fill stroke markers" d=" M 23.0125 220.49999999999997 C 23.0125 217.55218014794247 25.4021801479425 215.16249999999997 28.349999999999998 215.16249999999997 C 31.297819852057497 215.16249999999997 33.6875 217.55218014794247 33.6875 220.49999999999997 C 33.6875 223.44781985205748 31.297819852057497 225.83749999999998 28.349999999999998 225.83749999999998 C 25.4021801479425 225.83749999999998 23.0125 223.44781985205748 23.0125 220.49999999999997" stroke-opacity="1" stroke-linecap="round" stroke-miterlimit="10" stroke-width="0.08" stroke-dasharray=""/><path fill="none" stroke="rgb(0,0,0)" paint-order="fill stroke markers" d=" M 23.0125 562.0999999999999 C 23.0125 559.1521801479424 25.4021801479425 556.7624999999999 28.349999999999998 556.7624999999999 C 31.297819852057497 556.7624999999999 33.6875 559.1521801479424 33.6875 562.0999999999999 C 33.6875 565.0478198520574 31.297819852057497 567.4374999999999 28.349999999999998 567.4374999999999 C 25.4021801479425 567.4374999999999 23.0125 565.0478198520574 23.0125 562.0999999999999" stroke-opacity="1" stroke-linecap="round" stroke-miterlimit="10" stroke-width="0.08" stroke-dasharray=""/></g></svg>