<svg version="1.1" xmlns="http://www.w3.org/2000/svg" xmlns:xlink="http://www.w3.org/1999/xlink" width="654.4999999999999" height="654.4999999999999" viewBox="0 0 654.4999999999999 654.4999999999999"><defs/><g><path fill="none" stroke="rgb(0,0,0)" paint-order="fill stroke markers" d=" M 177.79999999999998 71.05 L 284.54999999999995 71.05" stroke-opacity="1" stroke-linecap="round" stroke-miterlimit="10" stroke-width="0.08" stroke-dasharray=""/><path fill="none" stroke="rgb(0,0,0)" paint-order="fill stroke markers" d=" M 177.79999999999998 113.74999999999999 L 284.54999999999995 113.74999999999999" stroke-opacity="1" stroke-linecap="round" stroke-miterlimit="10" stroke-width="0.08" stroke-dasharray=""/><path fill="none" stroke="rgb(0,0,0)" paint-order="fill stroke markers" d=" M 28.349999999999998 49.699999999999996 L 647.4999999999999 49.699999999999996" stroke-opacity="1" stroke-linecap="round" stroke-miterlimit="10" stroke-width="0.08" stroke-dasharray=""/><path fill="none" stroke="rgb(0,0,0)" paint-order="fill stroke markers" d=" M 28.349999999999998 135.1 L 647.4999999999999 135.1" stroke-opacity="1" stroke-linecap="round" stroke-miterlimit="10" stroke-width="0.08" stroke-dasharray=""/><path fill="none" stroke="rgb(0,0,0)" paint-order="fill stroke markers" d=" M 177.79999999999998 71.05 C 135.1 71.05 135.1 113.74999999999999 177.79999999999998 113.74999999999999" stroke-opacity="1" stroke-linecap="round" stroke-miterlimit="10" stroke-width="0.08" stroke-dasharray=""/><path fill="none" stroke="rgb(0,0,0)" paint-order="fill stroke markers" d=" M 284.54999999999995 113.74999999999999 C 327.24999999999994 113.74999999999999 327.24999999999994 71.05 284.54999999999995 71.05" stroke-opacity="1" stroke-linecap="round" stroke-miterlimit="10" stroke-width="0.08" stroke-dasharray=""/><path fill="none" stroke="rgb(0,0,0)" paint-order="fill stroke markers" d=" M 49.7 92.39999999999999 C 49.7 80.60872059177 59.25872059177 71.05 71.05 71.05 C 82.84127940823 71.05 92.4 80.60872059177 92.4 92.39999999999999 C 92.4 104.19127940822999 82.84127940823 113.75 71.05 113.75 C 59.25872059177 113.75 49.7 104.19127940822999 49.7 92.39999999999999" stroke-opacity="1" stroke-linecap="round" stroke-miterlimit="10" stroke-width="0.08" stroke-dasharray=""/><path fill="none" stroke="rgb(0,0,0)" paint-order="fill stroke markers" d=" M 476.69999999999993 92.39999999999999 C 476.69999999999993 80.60872059177 486.25872059176993 71.05 498.04999999999995 71.05 C 509.84127940823 71.05 519.4 80.60872059177 519.4 92.39999999999999 C 519.4 104.19127940822999 509.84127940823 113.75 498.04999999999995 113.75 C 486.25872059176993 113.75 476.69999999999993 104.19127940822999 476.69999999999993 92.39999999999999" stroke-opacity="1" stroke-linecap="round" stroke-miterlimit="10" stroke-width="0.08" stroke-dasharray=""/><path fill="none" stroke="rgb(0,0,0)" paint-order="fill stroke markers" d=" M 583.4499999999999 92.39999999999999 C 583.4499999999999 80.60872059177 593.0087205917699 71.05 604.8 71.05 C 616.59127940823 71.05 626.15 80.60872059177 626.15 92.39999999999999 C 626.15 104.19127940822999 616.59127940823 113.75 604.8 113.75 C 593.0087205917699 113.75 583.4499999999999 104.19127940822999 583.4499999999999 92.39999999999999" stroke-opacity="1" stroke-linecap="round" stroke-miterlimit="10" stroke-width="0.08" stroke-dasharray=""/></g></svg>