<svg version="1.1" xmlns="http://www.w3.org/2000/svg" xmlns:xlink="http://www.w3.org/1999/xlink" width="852.75" height="852.75" viewBox="0 0 852.75 852.75"><defs/><g><path fill="none" stroke="rgb(0,0,0)" paint-order="fill stroke markers" d=" M 7 7 L 7 617" stroke-opacity="1" stroke-linecap="round" stroke-miterlimit="10" stroke-width="0.08" stroke-dasharray=""/><path fill="none" stroke="rgb(0,0,0)" paint-order="fill stroke markers" d=" M 7 617 L 52.75 617" stroke-opacity="1" stroke-linecap="round" stroke-miterlimit="10" stroke-width="0.08" stroke-dasharray=""/><path fill="none" stroke="rgb(0,0,0)" paint-order="fill stroke markers" d=" M 52.75 617 L 52.75 479.75" stroke-opacity="1" stroke-linecap="round" stroke-miterlimit="10" stroke-width="0.08" stroke-dasharray=""/><path fill="none" stroke="rgb(0,0,0)" paint-order="fill stroke markers" d=" M 7 7 L 52.75 7" stroke-opacity="1" stroke-linecap="round" stroke-miterlimit="10" stroke-width="0.08" stroke-dasharray=""/><path fill="none" stroke="rgb(0,0,0)" paint-order="fill stroke markers" d=" M 52.75 7 L 52.75 144.25" stroke-opacity="1" stroke-linecap="round" stroke-miterlimit="10" stroke-width="0.08" stroke-dasharray=""/><path fill="none" stroke="rgb(0,0,0)" paint-order="fill stroke markers" d=" M 52.75 220.5 L 52.75 403.5" stroke-opacity="1" stroke-linecap="round" stroke-miterlimit="10" stroke-width="0.08" stroke-dasharray=""/><path fill="none" stroke="rgb(0,0,0)" paint-order="fill stroke markers" d=" M 52.75 403.5 L 586.5 312" stroke-opacity="1" stroke-linecap="round" stroke-miterlimit="10" stroke-width="0.08" stroke-dasharray=""/><path fill="none" stroke="rgb(0,0,0)" paint-order="fill stroke markers" d=" M 586.5 312 L 52.75 220.5" stroke-opacity="1" stroke-linecap="round" stroke-miterlimit="10" stroke-width="0.08" stroke-dasharray=""/><path fill="none" stroke="rgb(0,0,0)" paint-order="fill stroke markers" d=" M 52.75 144.25 L 586.5 235.75" stroke-opacity="1" stroke-linecap="round" stroke-miterlimit="10" stroke-width="0.08" stroke-dasharray=""/><path fill="none" stroke="rgb(0,0,0)" paint-order="fill stroke markers" d=" M 52.75 479.75 L 586.5 388.25" stroke-opacity="1" stroke-linecap="round" stroke-miterlimit="10" stroke-width="0.08" stroke-dasharray=""/><path fill="none" stroke="rgb(0,0,0)" paint-order="fill stroke markers" d=" M 586.5 235.75 C 800 266.25 800 342.5 586.5 388.25" stroke-opacity="1" stroke-linecap="round" stroke-miterlimit="10" stroke-width="0.08" stroke-dasharray=""/><path fill="none" stroke="rgb(0,0,0)" paint-order="fill stroke markers" d=" M 106.125 190 C 106.125 185.788828782775 109.538828782775 182.375 113.75 182.375 C 117.961171217225 182.375 121.375 185.788828782775 121.375 190 C 121.375 194.211171217225 117.961171217225 197.625 113.75 197.625 C 109.538828782775 197.625 106.125 194.211171217225 106.125 190" stroke-opacity="1" stroke-linecap="round" stroke-miterlimit="10" stroke-width="0.08" stroke-dasharray=""/><path fill="none" stroke="rgb(0,0,0)" paint-order="fill stroke markers" d=" M 106.125 434 C 106.125 429.788828782775 109.538828782775 426.375 113.75 426.375 C 117.961171217225 426.375 121.375 429.788828782775 121.375 434 C 121.375 438.211171217225 117.961171217225 441.625 113.75 441.625 C 109.538828782775 441.625 106.125 438.211171217225 106.125 434" stroke-opacity="1" stroke-linecap="round" stroke-miterlimit="10" stroke-width="0.08" stroke-dasharray=""/><path fill="none" stroke="rgb(0,0,0)" paint-order="fill stroke markers" d=" M 674.1875 312 C 674.1875 309.8944143913875 675.8944143913875 308.1875 678 308.1875 C 680.1055856086125 308.1875 681.8125 309.8944143913875 681.8125 312 C 681.8125 314.1055856086125 680.1055856086125 315.8125 678 315.8125 C 675.8944143913875 315.8125 674.1875 314.1055856086125 674.1875 312" stroke-opacity="1" stroke-linecap="round" stroke-miterlimit="10" stroke-width="0.08" stroke-dasharray=""/></g></svg>