<svg version="1.1" xmlns="http://www.w3.org/2000/svg" xmlns:xlink="http://www.w3.org/1999/xlink" width="188.97674667497702" height="377.95349334995404" viewBox="0 0 188.97674667497702 377.95349334995404"><defs/><g><g><text fill="none" stroke="rgb(0,0,0)" font-family="sans-serif" font-size="94.48837333748851px" font-style="normal" font-weight="normal" text-decoration="normal" x="11.33860480049862" y="94.48837333748851" text-anchor="middle" dominant-baseline="central" transform="matrix(1 0 0 1 0 0)" stroke-opacity="1" stroke-linecap="round" stroke-miterlimit="10" stroke-width="0.1" stroke-dasharray=""></text></g><g><text fill="none" stroke="rgb(0,255,0)" font-family="sans-serif" font-size="18.8976746674977px" font-style="normal" font-weight="normal" text-decoration="normal" x="94.48837333748851" y="124.25221093879738" text-anchor="middle" dominant-baseline="central" transform="matrix(1 0 0 1 0 0)" stroke-opacity="1" stroke-linecap="round" stroke-miterlimit="10" stroke-width="0.1" stroke-dasharray="">tokyo 55</text></g><g><text fill="none" stroke="rgb(0,255,0)" font-family="sans-serif" font-size="18.8976746674977px" font-style="normal" font-weight="normal" text-decoration="normal" x="94.48837333748851" y="147.8743042731695" text-anchor="middle" dominant-baseline="central" transform="matrix(1 0 0 1 0 0)" stroke-opacity="1" stroke-linecap="round" stroke-miterlimit="10" stroke-width="0.1" stroke-dasharray="">young hearts</text></g><g><text fill="none" stroke="rgb(0,255,0)" font-family="sans-serif" font-size="18.8976746674977px" font-style="normal" font-weight="normal" text-decoration="normal" x="94.48837333748851" y="222.52011920978543" text-anchor="middle" dominant-baseline="central" transform="matrix(1 0 0 1 0 0)" stroke-opacity="1" stroke-linecap="round" stroke-miterlimit="10" stroke-width="0.1" stroke-dasharray="">host: haques</text></g><g><text fill="none" stroke="rgb(0,255,0)" font-family="sans-serif" font-size="18.8976746674977px" font-style="normal" font-weight="normal" text-decoration="normal" x="94.48837333748851" y="246.14221254415753" text-anchor="middle" dominant-baseline="central" transform="matrix(1 0 0 1 0 0)" stroke-opacity="1" stroke-linecap="round" stroke-miterlimit="10" stroke-width="0.1" stroke-dasharray="">round 40 (17.5.2023)</text></g><g><text fill="none" stroke="rgb(0,255,0)" font-family="sans-serif" font-size="37.7953493349954px" font-style="normal" font-weight="normal" text-decoration="normal" x="94.48837333748851" y="291.0241898794646" text-anchor="middle" dominant-baseline="central" transform="matrix(1 0 0 1 0 0)" stroke-opacity="1" stroke-linecap="round" stroke-miterlimit="10" stroke-width="0.1" stroke-dasharray="">re:teatteri</text></g><path fill="none" stroke="none"/><path fill="none" stroke="rgb(0,255,255)" paint-order="fill stroke markers" d=" M 69.92139626974149 0 L 119.05535040523552 0 L 119.05535040523552 37.7953493349954 L 69.92139626974149 37.7953493349954 L 69.92139626974149 0 Z" stroke-opacity="1" stroke-linecap="round" stroke-miterlimit="10" stroke-width="0.1" stroke-dasharray=""/><path fill="none" stroke="none"/><path fill="none" stroke="rgb(0,255,255)" paint-order="fill stroke markers" d=" M 56.693024002493104 37.7953493349954 L 132.28372267248392 37.7953493349954 L 132.28372267248392 75.5906986699908 L 56.693024002493104 75.5906986699908 L 56.693024002493104 37.7953493349954 Z" stroke-opacity="1" stroke-linecap="round" stroke-miterlimit="10" stroke-width="0.1" stroke-dasharray=""/><path fill="none" stroke="none"/><path fill="none" stroke="rgb(0,255,255)" paint-order="fill stroke markers" d=" M 47.24418666874425 75.5906986699908 L 141.73256000623275 75.5906986699908 L 141.73256000623275 75.5906986699908 A 9.44883733374885 9.44883733374885 0 0 1 151.1813973399816 85.03953600373966 L 151.1813973399816 85.03953600373964 L 151.1813973399816 85.03953600373964 A 9.44883733374885 9.44883733374885 0 0 1 141.73256000623275 94.4883733374885 L 47.24418666874425 94.4883733374885 L 47.24418666874425 94.4883733374885 A 9.44883733374885 9.44883733374885 0 0 1 37.7953493349954 85.03953600373964 L 37.7953493349954 85.03953600373966 L 37.7953493349954 85.03953600373966 A 9.44883733374885 9.44883733374885 0 0 1 47.24418666874425 75.5906986699908 Z" stroke-opacity="1" stroke-linecap="round" stroke-miterlimit="10" stroke-width="0.1" stroke-dasharray=""/><path fill="none" stroke="rgb(0,255,255)" paint-order="fill stroke markers" d=" M 13.228372267248389 340.1581440149586 C 13.228372267248389 326.5901772317556 24.227382551792406 315.5911669472116 37.7953493349954 315.5911669472116 C 51.3633161181984 315.5911669472116 62.36232640274241 326.5901772317556 62.36232640274241 340.1581440149586 C 62.36232640274241 353.72611079816164 51.3633161181984 364.72512108270564 37.7953493349954 364.72512108270564 C 24.227382551792406 364.72512108270564 13.228372267248389 353.72611079816164 13.228372267248389 340.1581440149586" stroke-opacity="1" stroke-linecap="round" stroke-miterlimit="10" stroke-width="0.1" stroke-dasharray=""/><path fill="none" stroke="rgb(0,255,255)" paint-order="fill stroke markers" d=" M 126.61442027223461 340.1581440149586 C 126.61442027223461 326.5901772317556 137.61343055677864 315.5911669472116 151.18139733998163 315.5911669472116 C 164.74936412318462 315.5911669472116 175.74837440772865 326.5901772317556 175.74837440772865 340.1581440149586 C 175.74837440772865 353.72611079816164 164.74936412318462 364.72512108270564 151.18139733998163 364.72512108270564 C 137.61343055677864 364.72512108270564 126.61442027223461 353.72611079816164 126.61442027223461 340.1581440149586" stroke-opacity="1" stroke-linecap="round" stroke-miterlimit="10" stroke-width="0.1" stroke-dasharray=""/><path fill="none" stroke="rgb(0,255,255)" paint-order="fill stroke markers" d=" M 83.1497685369899 188.97674667497702 C 83.1497685369899 182.71460815965256 88.22623482216406 177.6381418744784 94.48837333748851 177.6381418744784 C 100.75051185281296 177.6381418744784 105.82697813798714 182.71460815965256 105.82697813798714 188.97674667497702 C 105.82697813798714 195.2388851903015 100.75051185281296 200.31535147547564 94.48837333748851 200.31535147547564 C 88.22623482216406 200.31535147547564 83.1497685369899 195.2388851903015 83.1497685369899 188.97674667497702" stroke-opacity="1" stroke-linecap="round" stroke-miterlimit="10" stroke-width="0.1" stroke-dasharray=""/><path fill="none" stroke="none"/><path fill="none" stroke="rgb(0,255,255)" paint-order="fill stroke markers" d=" M 15.118139733998161 0 L 173.85860694097886 -1.7763568394002505e-15 L 173.85860694097886 -1.7763568394002505e-15 A 15.118139733998161 15.118139733998161 0 0 1 188.97674667497702 15.11813973399816 L 188.97674667497702 362.8353536159559 L 188.97674667497702 362.8353536159559 A 15.118139733998161 15.118139733998161 0 0 1 173.85860694097886 377.95349334995404 L 15.11813973399816 377.95349334995404 L 15.118139733998161 377.95349334995404 A 15.118139733998161 15.118139733998161 0 0 1 -1.7763568394002505e-15 362.8353536159559 L -1.7763568394002505e-15 15.11813973399816 L -1.7763568394002505e-15 15.118139733998158 A 15.118139733998161 15.118139733998161 0 0 1 15.118139733998161 -1.7763568394002505e-15 Z" stroke-opacity="1" stroke-linecap="round" stroke-miterlimit="10" stroke-width="0.1" stroke-dasharray=""/></g></svg>