<svg version="1.1" xmlns="http://www.w3.org/2000/svg" xmlns:xlink="http://www.w3.org/1999/xlink" width="461.5384615384616" height="205.12820512820514" viewBox="0 0 461.5384615384616 205.12820512820514"><defs/><g><path fill="none" stroke="rgb(255,0,0)" paint-order="fill stroke markers" d=" M 158.974358974359 87.17948717948718 C 158.974358974359 47.52827437333334 191.11801796307697 15.384615384615387 230.7692307692308 15.384615384615387 C 270.42044357538464 15.384615384615387 302.5641025641026 47.52827437333334 302.5641025641026 87.17948717948718 C 302.5641025641026 126.83069998564102 270.42044357538464 158.97435897435898 230.7692307692308 158.97435897435898 C 191.11801796307697 158.97435897435898 158.974358974359 126.83069998564102 158.974358974359 87.17948717948718" stroke-opacity="1" stroke-linecap="round" stroke-miterlimit="10" stroke-width="0.1" stroke-dasharray=""/><path fill="none" stroke="rgb(255,0,0)" paint-order="fill stroke markers" d=" M 35.8974358974359 102.56410256410257 C 35.8974358974359 94.06741410564103 42.78536282358974 87.17948717948718 51.282051282051285 87.17948717948718 C 59.778739740512826 87.17948717948718 66.66666666666667 94.06741410564103 66.66666666666667 102.56410256410257 C 66.66666666666667 111.0607910225641 59.778739740512826 117.94871794871796 51.282051282051285 117.94871794871796 C 42.78536282358974 117.94871794871796 35.8974358974359 111.0607910225641 35.8974358974359 102.56410256410257" stroke-opacity="1" stroke-linecap="round" stroke-miterlimit="10" stroke-width="0.1" stroke-dasharray=""/><path fill="none" stroke="rgb(255,0,0)" paint-order="fill stroke markers" d=" M 394.8717948717949 102.56410256410257 C 394.8717948717949 94.06741410564103 401.7597217979487 87.17948717948718 410.2564102564103 87.17948717948718 C 418.75309871487184 87.17948717948718 425.6410256410257 94.06741410564103 425.6410256410257 102.56410256410257 C 425.6410256410257 111.0607910225641 418.75309871487184 117.94871794871796 410.2564102564103 117.94871794871796 C 401.7597217979487 117.94871794871796 394.8717948717949 111.0607910225641 394.8717948717949 102.56410256410257" stroke-opacity="1" stroke-linecap="round" stroke-miterlimit="10" stroke-width="0.1" stroke-dasharray=""/><path fill="none" stroke="none"/><path fill="none" stroke="rgb(0,255,255)" paint-order="fill stroke markers" d=" M 25.641025641025642 0 L 435.89743589743597 0 L 435.89743589743597 0 A 25.641025641025642 25.641025641025642 0 0 1 461.5384615384616 25.641025641025642 L 461.5384615384616 179.4871794871795 L 461.5384615384616 179.4871794871795 A 25.641025641025642 25.641025641025642 0 0 1 435.89743589743597 205.12820512820514 L 25.641025641025642 205.12820512820514 L 25.641025641025642 205.12820512820514 A 25.641025641025642 25.641025641025642 0 0 1 0 179.4871794871795 L 0 25.641025641025642 L 0 25.641025641025646 A 25.641025641025642 25.641025641025642 0 0 1 25.641025641025642 0 Z" stroke-opacity="1" stroke-linecap="round" stroke-miterlimit="10" stroke-width="0.1" stroke-dasharray=""/><g><g><text fill="none" stroke="rgb(0,255,0)" font-family="sans-serif" font-size="24px" font-style="normal" font-weight="normal" text-decoration="normal" x="0" y="0" text-anchor="middle" dominant-baseline="alphabetic" transform="matrix(-1 0 0 1 230.7692307692308 189.74358974358975)" stroke-opacity="1" stroke-linecap="round" stroke-miterlimit="10" stroke-width="0.1" stroke-dasharray="">Sinitiainen (Cyanistes caeruleus) 2022</text><text fill="rgb(255,255,0)" stroke="none" font-family="sans-serif" font-size="24px" font-style="normal" font-weight="normal" text-decoration="normal" x="0" y="0" text-anchor="middle" dominant-baseline="alphabetic" transform="matrix(-1 0 0 1 230.7692307692308 189.74358974358975)" fill-opacity="1">Sinitiainen (Cyanistes caeruleus) 2022</text></g></g></g></svg>