<?xml version="1.0" encoding="utf-8"?>
<!-- Generator: Adobe Illustrator 27.7.0, SVG Export Plug-In . SVG Version: 6.00 Build 0)  -->
<svg version="1.1" id="Layer_1" xmlns="http://www.w3.org/2000/svg" xmlns:xlink="http://www.w3.org/1999/xlink" x="0px" y="0px"
	 viewBox="0 0 128.2 21.5" style="enable-background:new 0 0 128.2 21.5;" xml:space="preserve">
<style type="text/css">
	.st0{fill:none;stroke:#000000;stroke-width:8.000000e-02;stroke-linecap:round;stroke-miterlimit:10;}
	.st1{fill:none;stroke:#000000;stroke-width:0.2835;stroke-linecap:round;stroke-miterlimit:10;}
	.st2{fill:none;stroke:#000000;stroke-width:2.834646e-03;stroke-miterlimit:10;}
</style>
<path class="st0" d="M32,5.4h21.6"/>
<path class="st0" d="M32,14h21.6"/>
<path class="st1" d="M1.8,2.4h125.4"/>
<path class="st1" d="M1.4,16.7h125.4"/>
<path class="st1" d="M1.4,19h125.5"/>
<path class="st0" d="M32,5.4c-8.6,0-8.6,8.6,0,8.6"/>
<path class="st0" d="M53.7,5.4c8.6,0,8.6,8.6,0,8.6"/>
<path class="st0" d="M6.1,9.7c0-2.4,1.9-4.3,4.3-4.3s4.3,1.9,4.3,4.3S12.8,14,10.4,14S6.1,12.1,6.1,9.7"/>
<path class="st0" d="M92.6,9.7c0-2.4,1.9-4.3,4.3-4.3s4.3,1.9,4.3,4.3S99.3,14,96.9,14S92.6,12.1,92.6,9.7"/>
<path class="st0" d="M114.2,9.7c0-2.4,1.9-4.3,4.3-4.3s4.3,1.9,4.3,4.3s-1.9,4.3-4.3,4.3S114.2,12.1,114.2,9.7"/>
<g>
	<path class="st2" d="M0,2c0-1.1,0.9-2,2-2h124.2c1.1,0,2,0.9,2,2v17.5c0,1.1-0.9,2-2,2H2c-1.1,0-2-0.9-2-2V2z"/>
</g>
</svg>
